<?xml version="1.0" encoding="UTF-8"?>
<svg width="577px" height="790px" viewBox="0 0 577 790" version="1.1" xmlns="http://www.w3.org/2000/svg" xmlns:xlink="http://www.w3.org/1999/xlink">
    <!-- Generator: Sketch 51.1 (57501) - http://www.bohemiancoding.com/sketch -->
    <title>form background</title>
    <desc>Created with Sketch.</desc>
    <defs>
        <path d="M497,115 L497,735 C497,743.284271 490.284271,750 482,750 L62,750 C53.7157288,750 47,743.284271 47,735 L47,713 L16,713 C7.163444,713 1.082166e-15,705.836556 0,697 C-1.082166e-15,688.163444 7.163444,681 16,681 L47,681 L68,681 C76.836556,681 84,673.836556 84,665 C84,656.163444 76.836556,649 68,649 L47,649 L43,649 C34.163444,649 27,641.836556 27,633 C27,624.163444 34.163444,617 43,617 L47,617 L47,15 C47,6.71572875 53.7157288,1.52179594e-15 62,0 L482,0 C490.284271,-1.52179594e-15 497,6.71572875 497,15 L497,25 L524,25 C532.284271,25 539,31.7157288 539,40 C539,48.2842712 532.284271,55 524,55 L497,55 L493,55 C484.715729,55 478,61.7157288 478,70 C478,78.2842712 484.715729,85 493,85 L497,85 L505,85 C513.284271,85 520,91.7157288 520,100 C520,108.284271 513.284271,115 505,115 L497,115 Z" id="path-1"></path>
        <filter x="-5.7%" y="-3.9%" width="111.3%" height="108.1%" filterUnits="objectBoundingBox" id="filter-2">
            <feOffset dx="0" dy="1" in="SourceAlpha" result="shadowOffsetOuter1"></feOffset>
            <feGaussianBlur stdDeviation="10" in="shadowOffsetOuter1" result="shadowBlurOuter1"></feGaussianBlur>
            <feColorMatrix values="0 0 0 0 0.199270158   0 0 0 0 0.416640094   0 0 0 0 0.3949031  0 0 0 0.3 0" type="matrix" in="shadowBlurOuter1"></feColorMatrix>
        </filter>
    </defs>
    <g id="Page-1" stroke="none" stroke-width="1" fill="none" fill-rule="evenodd">
        <g id="Artboard" transform="translate(-672.000000, -146.000000)" fill-rule="nonzero">
            <g id="Form" transform="translate(691.000000, 165.000000)">
                <g id="form-background">
                    <use fill="black" fill-opacity="1" filter="url(#filter-2)" xlink:href="#path-1"></use>
                    <use fill="#FFFFFF" xlink:href="#path-1"></use>
                </g>
            </g>
        </g>
    </g>
</svg>